<svg xmlns="http://www.w3.org/2000/svg" width="256" height="256" fill="none" viewBox="0 0 256 256">
<!-- SVG created with Arrow, by QuiverAI (https://quiver.ai) -->
  <path d="m243.2 97.38c-1.45-5.27-9.28-4.04-8.92 1.41 1.09 6.39 3.19 16.2 3.19 29.43 0 28.16-11.18 53.16-28.68 71.82-2.49 2.68-6.87-1.73-4.46-4.4 13.64-15.7 22.89-33.71 25.26-56.92-20.56 27.63-52.25 47.56-87.52 47.17-41.92 2.85-81.24-15.06-116.5-57.67 23.1-33.14 54.32-56.21 96.48-58.14-4.26 11.83-11.45 23.71-19.12 35.7-5.44 8.34-8.88 16.85-8.26 24.96 1.46 16.33 13.47 31.57 33.07 31.57 19.61 0 33.4-18.02 32.86-35.19-0.39-12.19-9.84-22.13-16.46-32.36-5.35-7.61-8.84-14.48-10.56-24.68 9.91 0.49 18.98 2.63 23.09 4.9-0.53 2.09-0.76 4.55-0.48 7.07 1.38 10.94 10.07 16.76 19.87 15.39 7.11 9.75 10.82 21.47 9.96 33.35-0.98 13.2-6.22 25.28-12.93 34.27 16.2-8.22 29.77-20.1 42.07-36.84-11.06-14.36-21.27-23.9-33.06-32.01 3.29-1.4 5.26-3.83 6.1-6.71 15.75 9.59 29.11 23.21 40.91 38.72-13.85 22.57-40.94 47.74-79.14 54.79-47.58 9.12-91.97-10.72-124.3-44.02 1.99 20.58 10.18 40.73 24.35 58.3 1.76 2.42-3.2 4.77-3.87 3.01-17.42-18.62-36.18-48.54-27.49-90.24 4.52-21.67 14.13-38.63 26.9-53.3 2.52-2.87 6.69 1.95 4.25 4.58-12.1 15.57-22.2 33.64-24.29 56.42 5.71-6.95 11.34-13.05 16.47-17.67 3.79-10.99 8.92-21.14 16.2-29.87 2.62-3.1 7.99 1.75 5.22 4.49-4.8 5.28-7.74 10.19-10.48 16.01 8.05-6.53 14.48-10.63 21.18-13.91 12.94-13.8 29.11-22.09 52.67-22.32 11.33-0.11 21 2.57 27.98 6.13 5.91 2.11 9-8.41 2.3-10.73-8.14-2.63-14.28-4.46-22.82-4.83-2.33-0.11-2.57-1.87-2.35-4.33 0.22-2.47 1.23-3.06 3.53-2.82 7.76 0.7 13.46 1.86 19.3 4 6.42 2.08 7.89-10.65 1.4-11.75-8.4-1.91-12.63-3.32-21.41-4.15-2.52-0.25-2.63-1.05-2.5-4 0.08-2 0.66-2.87 3-2.52 6.98 0.67 13.28 1.87 19.98 2.82 6.38 1.15 7.02-8.38 2.62-9.25-9.9-2.52-19.1-3.67-31.2-3.67-63.59 0-117.9 51.57-117.9 118.8 0 62.02 52.1 119.2 117.9 119.2 65.8 0 120.1-57.19 120.1-119.2 0-10.61-1.24-21.13-3.52-30.84z" fill="url(#paint0_linear_43_2209)"/>
  <path d="m170 105.2c-1.24-2.09-3.15-0.8-4.28 0.21-1.47 1.34-1.64 2.49-0.3 5.01 3.69 6.88 5.39 12.54 5 19.58-1.66 25.7-21.67 42.81-43.6 42.81-24.69 0-40.72-18.76-42.56-41.72-1.61-21.37 12.91-42.33 31.4-45.89l2.52-4.89c-23.08 2.64-40.42 24.56-41.62 46.38-1.46 28.12 19.5 50.19 49.41 51.06 26.86 0 50.59-23.28 50.59-49.66 0-8.11-1.8-15.35-6.56-22.89z" fill="url(#paint1_linear_43_2209)"/>
  <path d="m126.6 218.1c-4.34 0-4.7 4.51-4.7 5.42 0 2.54 2 5.08 5.68 5.08 3.82 0 5.03-3.33 5.03-5.08 0-2.54-2-5.42-6.01-5.42z" fill="url(#paint2_linear_43_2209)"/>
  <path d="m127.5 26.92c-4.64 0-4.73 3.96-4.73 4.69 0 3.06 2.09 5.17 4.87 5.17 3.59 0 4.74-2.99 4.74-5.17 0-2.62-1.74-4.69-4.88-4.69z" fill="url(#paint3_linear_43_2209)"/>
  <path d="m60.11 55.42c-4.7 0-4.89 3.86-4.89 4.8 0 3.1 2.14 5.11 4.89 5.11 3.68 0 4.8-3.02 4.8-5.11 0-2.65-1.74-4.8-4.8-4.8z" fill="url(#paint4_linear_43_2209)"/>
  <path d="m194.7 191.1c-4.7 0-4.89 3.86-4.89 4.8 0 3.1 2.14 4.41 4.89 4.41 3.68 0 4.8-3.01 4.8-4.41 0-2.65-1.74-4.8-4.8-4.8z" fill="url(#paint5_linear_43_2209)"/>
  <path d="m60.11 191.1c-4.7 0-4.89 3.86-4.89 4.8 0 3.1 2.14 4.41 4.89 4.41 3.68 0 4.8-3.01 4.8-4.41 0-2.65-1.74-4.8-4.8-4.8z" fill="url(#paint6_linear_43_2209)"/>
  <path d="m120.2 19.09c-26.48 1.24-48.01 11.57-64.48 27.84-2.36 1.98 0.51 5.93 3.48 4.04 17-15.42 34.7-24.81 61-26.57 2.52-0.29 2.68-1.48 2.52-3.78-0.15-1.75-0.59-1.71-2.52-1.53z" fill="#fff"/>
  <path d="m120.2 38.17c-19.3 1.05-35.28 7.09-50.1 20.8-2.68 2.4 1.02 7.34 3.32 6.1 14-13.26 26.9-18.63 46.78-19.96 2.52-0.25 2.52-1.92 2.52-3.68 0-2.27-0.44-3.52-2.52-3.26z" fill="#fff"/>
  <path d="m190.4 205c-16.47 14.76-33.07 23.73-56.07 24.68-2.4 0.17-2.54 1.11-2.42 3.86 0.09 2.42 0.82 2.93 2.97 2.67 23.4-1.76 42.93-10.26 62.65-26.59 2.97-2.33-2.78-8.26-7.13-4.62z" fill="#fff"/>
  <path d="m181.7 192.1c-14.81 12.79-28.81 18.58-47.01 18.82-2.52 0.11-2.82 0.86-2.6 3.86 0.18 2.33 0.8 2.78 2.95 2.56 18.06-1.46 32.87-7.93 50.29-20.31 3.57-2.64 0.46-8.35-3.63-4.93z" fill="#fff"/>
  <path d="m120.2 229.3c-22.99-1.6-41-8.6-60.18-23.85-3.4-2.74-6.59 2.48-4.12 4.47 18.33 15.25 37.07 24.39 64.3 26.48 2.52 0.25 2.52-1.51 2.52-3.27 0-2.33-0.44-3.73-2.52-3.83z" fill="#fff"/>
  <path d="m120.2 210.7c-18.28-1.18-33.09-8.28-45.86-18.56-3.59-2.97-6.92 2.97-4.4 5.3 12.77 10.28 26.18 17.71 48.21 20.16 3.54 0.42 4.57-1.33 4.57-3.48 0-2.3-0.25-3.25-2.52-3.42z" fill="#fff"/>
  <path d="m200.2 166c-5.3 5.62-7.39 8.91-9 13.18-2.15 2.84 1.11 8.73 4.55 5.56 6.13-6.94 8.22-12.08 5.76-19.64l-1.31 0.9z" fill="#fff"/>
  <path d="m224.7 96.11c-2.59-6.79-11.84-3.18-10.83 2.98 0.57 3.42 2.96 4.87 8.06 10.69 3.15 3.63 5.2 6.35 7.22 8.33-0.42-7.35-1.92-14.73-4.45-22z" fill="url(#paint7_linear_43_2209)"/>
  <path d="m41.82 155.1-5.76 1.59-1.44 3 2.49 2.45 3.78-1.45 0.93-5.59z" fill="url(#paint8_linear_43_2209)"/>
  <path d="m44.79 168.9-6.2 1.91 0.72 2.81 3.82 1.08 2.49-2.05-0.83-3.75z" fill="url(#paint9_linear_43_2209)"/>
  <path d="m49.01 179.7-3.39 1.56v2.93l2.71 1.3 2.18-1.55-0.36-4.02-1.14-0.22z" fill="url(#paint10_linear_43_2209)"/>
  <path d="m213.9 163.3-0.65 3.83 2.87 1.41 2.76-1.88-0.18-3.81-2.58-0.65-2.22 1.1z" fill="url(#paint11_linear_43_2209)"/>
  <path d="m206.9 178.3v3.07l2.21 1.08 2.49-2.15-0.22-3.42-2.74-0.42-1.74 1.84z" fill="url(#paint12_linear_43_2209)"/>
  <path d="m145.7 220.7-0.29 2.64 2.87 1.27 2.36-1.88-0.49-3.7-2.87-0.51-1.58 2.18z" fill="url(#paint13_linear_43_2209)"/>
  <path d="m158.1 215.6-0.66 3.39 3.4 1.67 2.68-2.58-0.93-3.42-3.3-0.49-1.19 1.43z" fill="url(#paint14_linear_43_2209)"/>
  <path d="m171 210.9-0.65 2.9 2.46 1.82 2.74-1.82 0.22-3.39-2.27-1.3-2.5 1.79z" fill="url(#paint15_linear_43_2209)"/>
  <path d="m70.23 48.81-0.97 2.9 2.49 2.01 3.26-1.66-0.29-4.14-2.49-0.91-2 1.8z" fill="url(#paint16_linear_43_2209)"/>
  <path d="m82.08 41.71-0.97 2.9 2.49 2.01 3.26-1.66-0.29-4.14-2.49-0.91-2 1.8z" fill="url(#paint17_linear_43_2209)"/>
  <path d="m93.61 36.31-0.97 2.91 2.49 2.01 3.26-1.66-0.29-4.14-2.49-0.91-2 1.79z" fill="url(#paint18_linear_43_2209)"/>
  <path d="m106.4 32.51-0.97 2.9 2.49 2.01 3.26-1.66-0.29-3.7-2.49-0.91-2 1.36z" fill="url(#paint19_linear_43_2209)"/>
  <path d="m45.15 74.29-0.97 2.9 2.49 1.56 2.56-1.56-0.29-3.76-2.22-0.72-1.57 1.58z" fill="url(#paint20_linear_43_2209)"/>
  <path d="m36.93 88.91 0.49 2.75 2.49 0.79 2.49-2.09-0.66-3.35-2.87 0.07-1.94 1.83z" fill="url(#paint21_linear_43_2209)"/>
  <path d="m70.23 205.2-0.97 2.38 2.49 2.02 2.68-0.52 0.58-3.42-2.78-1.76-2 1.3z" fill="url(#paint22_linear_43_2209)"/>
  <path d="m82.08 211.4-0.97 2.37 2.49 2.48 3.26-0.63 0.26-3.49-2.49-2.02-2.55 1.29z" fill="url(#paint23_linear_43_2209)"/>
  <path d="m93.9 216.7-0.66 3.22 2.87 1.48 2.68-1.4-0.36-4.1-2.74-0.77-1.79 1.57z" fill="url(#paint24_linear_43_2209)"/>
  <path d="m106.7 220.4-0.29 3.32 2.87 1.3 2.36-1.3-0.22-4.05-2.77-0.9-1.95 1.63z" fill="url(#paint25_linear_43_2209)"/>
  <path d="m154.1 94.91-0.66 3.32 3.68 2.48 4.28-3.39-3.72-4.27-3.58 1.86z" fill="url(#paint26_linear_43_2209)"/>
  <path d="m90.21 153.1-3 3 5.8 8.95 4.12-4.85-4.81-8.11-2.11 1.01z" fill="url(#paint27_linear_43_2209)"/>
  <path d="m171.7 16.51c-5.98-0.22-5.98 9.3 0 9.58 30.04 1.27 55.02 26.82 56.09 56.74 0.21 6.58 10.14 5.56 9.94-0.51-1.61-32.61-29.54-64.51-66.03-65.81z" fill="url(#paint28_linear_43_2209)"/>
  <path d="m171.2 35.82c-6.56-0.27-6.07 9.64-0.46 9.89 20.01 0.91 38.06 18.4 38.55 37.25 0.22 6.14 8.82 5.16 8.46-0.25-0.72-23.74-20.44-45.79-46.55-46.89z" fill="url(#paint29_linear_43_2209)"/>
  <path d="m171.2 53.93c-6.36-0.32-5.35 10.03 0 10.03 10.63 0 17.74 10.33 18.13 18.87 0.32 5.82 9.4 5.22 9.21 0 0-13.87-13.01-28.21-27.34-28.9z" fill="url(#paint30_linear_43_2209)"/>
  <path d="m171.9 73.05c-7.8 0-8.83 6.94-8.83 9.27 0 6.14 4.11 8.4 8.98 8.4 6.46 0 8.64-6.41 8.64-8.4 0-4.92-3.79-9.27-8.79-9.27z" fill="url(#paint31_linear_43_2209)"/>
  <path d="m127.1 70.08c-5 16.58-25.96 40.1-27.2 56.43-1.24 16.32 10.34 28.61 27.13 28.61 16.8 0 27.58-14.9 27.58-27.71 0-14.93-20.89-34.36-27.51-57.33z" fill="url(#paint32_radial_43_2209)"/>
  <path d="m142.7 116.3c4.39 7.69 4.9 22.45-14 29.77 6.34 1.03 20.2-10.75 16.95-22.87-1.15-4.38-2.95-6.9-2.95-6.9z" fill="#fff"/>
  <path d="m124 94.91c-3.58 5.97-10.13 14.28-11.37 18.2-1.47 5 3.09 7.2 5.99 5 3.95-2.97 1.58-8.05 3.1-14.49 1-4.38 2.28-8.71 2.28-8.71z" fill="#fff"/>
  <path d="m73.12 178.7c14 13.4 27.96 21.57 52.81 21.57 22.99 0 38.18-8.17 53.38-21.57l0.93-0.67 1.88-1.05-0.4 0.75 4.59-2.25-6.07 4.18c-14.25 14.19-29.21 21.23-53.46 21.23-22.99 0-39.66-8.79-53.66-22.19z" fill="#fff"/>
  <path d="m42.21 155-16.54-17.35 18 20.1-1.46-2.75z" fill="#fff"/>
  <path d="m229.2 138-16.55 19.75-1.05-0.65 17.6-19.1z" fill="#fff"/>
  <path d="m63.26 181.4c-5.37-6.22-7.93-10.27-10.15-15.37 6.9 6.28 10.9 9.35 15.32 11.75l-5.17 3.62z" fill="#fff"/>
  <defs>
    <linearGradient id="paint0_linear_43_2209" x1="62.26" x2="188.7" y1="227.4" y2="22.21" gradientUnits="userSpaceOnUse">
      <stop stop-color="#092355" offset="0"/>
      <stop stop-color="#1BA2C1" offset=".5104"/>
      <stop stop-color="#36B9CC" offset="1"/>
    </linearGradient>
    <linearGradient id="paint1_linear_43_2209" x1="126.5" x2="126.5" y1="79.91" y2="177.8" gradientUnits="userSpaceOnUse">
      <stop stop-color="#A7FFFB" offset="0"/>
      <stop stop-color="#49C6E0" offset=".5104"/>
      <stop stop-color="#49C6E0" offset="1"/>
    </linearGradient>
    <linearGradient id="paint2_linear_43_2209" x1="127.3" x2="127.3" y1="217.8" y2="228.9" gradientUnits="userSpaceOnUse">
      <stop stop-color="#E84649" offset="0"/>
      <stop stop-color="#BD2042" offset="1"/>
    </linearGradient>
    <linearGradient id="paint3_linear_43_2209" x1="127.6" x2="127.6" y1="26.62" y2="37.08" gradientUnits="userSpaceOnUse">
      <stop stop-color="#F17E42" offset="0"/>
      <stop stop-color="#D34237" offset="1"/>
    </linearGradient>
    <linearGradient id="paint4_linear_43_2209" x1="60" x2="60" y1="55.12" y2="65.63" gradientUnits="userSpaceOnUse">
      <stop stop-color="#E84649" offset="0"/>
      <stop stop-color="#BD2042" offset="1"/>
    </linearGradient>
    <linearGradient id="paint5_linear_43_2209" x1="194.7" x2="194.7" y1="190.8" y2="200.6" gradientUnits="userSpaceOnUse">
      <stop stop-color="#F14938" offset="0"/>
      <stop stop-color="#E84649" offset="1"/>
    </linearGradient>
    <linearGradient id="paint6_linear_43_2209" x1="60" x2="60" y1="190.8" y2="200.6" gradientUnits="userSpaceOnUse">
      <stop stop-color="#950F36" offset="0"/>
      <stop stop-color="#E84649" offset="1"/>
    </linearGradient>
    <linearGradient id="paint7_linear_43_2209" x1="221.5" x2="221.5" y1="92.49" y2="118.1" gradientUnits="userSpaceOnUse">
      <stop stop-color="#36B9CC" offset="0"/>
      <stop stop-color="#136182" offset="1"/>
    </linearGradient>
    <linearGradient id="paint8_linear_43_2209" x1="38.22" x2="38.22" y1="155.1" y2="162.2" gradientUnits="userSpaceOnUse">
      <stop stop-color="#09487E" offset="0"/>
      <stop stop-color="#227BA8" offset="1"/>
    </linearGradient>
    <linearGradient id="paint9_linear_43_2209" x1="42.1" x2="42.1" y1="168.9" y2="174.7" gradientUnits="userSpaceOnUse">
      <stop stop-color="#227BA8" offset="0"/>
      <stop stop-color="#2999C1" offset="1"/>
    </linearGradient>
    <linearGradient id="paint10_linear_43_2209" x1="48" x2="48" y1="179.6" y2="185.5" gradientUnits="userSpaceOnUse">
      <stop stop-color="#2999C1" offset="0"/>
      <stop stop-color="#36B9CC" offset="1"/>
    </linearGradient>
    <linearGradient id="paint11_linear_43_2209" x1="216" x2="216" y1="162.1" y2="168.6" gradientUnits="userSpaceOnUse">
      <stop stop-color="#B74345" offset="0"/>
      <stop stop-color="#B74345" offset="1"/>
    </linearGradient>
    <linearGradient id="paint12_linear_43_2209" x1="209.3" x2="209.3" y1="176.4" y2="182.5" gradientUnits="userSpaceOnUse">
      <stop stop-color="#B74345" offset="0"/>
      <stop stop-color="#B74345" offset="1"/>
    </linearGradient>
    <linearGradient id="paint13_linear_43_2209" x1="148" x2="148" y1="218.3" y2="224.6" gradientUnits="userSpaceOnUse">
      <stop stop-color="#96889B" offset="0"/>
      <stop stop-color="#96889B" offset="1"/>
    </linearGradient>
    <linearGradient id="paint14_linear_43_2209" x1="160.5" x2="160.5" y1="213.9" y2="220.7" gradientUnits="userSpaceOnUse">
      <stop stop-color="#D34237" offset="0"/>
      <stop stop-color="#D34237" offset="1"/>
    </linearGradient>
    <linearGradient id="paint15_linear_43_2209" x1="173" x2="173" y1="208.8" y2="215.6" gradientUnits="userSpaceOnUse">
      <stop stop-color="#B72143" offset="0"/>
      <stop stop-color="#B72143" offset="1"/>
    </linearGradient>
    <linearGradient id="paint16_linear_43_2209" x1="72.14" x2="72.14" y1="46.77" y2="53.87" gradientUnits="userSpaceOnUse">
      <stop stop-color="#84E9EF" offset="0"/>
      <stop stop-color="#49C6E0" offset="1"/>
    </linearGradient>
    <linearGradient id="paint17_linear_43_2209" x1="84" x2="84" y1="39.66" y2="46.77" gradientUnits="userSpaceOnUse">
      <stop stop-color="#84E9EF" offset="0"/>
      <stop stop-color="#49C6E0" offset="1"/>
    </linearGradient>
    <linearGradient id="paint18_linear_43_2209" x1="95.53" x2="95.53" y1="34.26" y2="41.37" gradientUnits="userSpaceOnUse">
      <stop stop-color="#84E9EF" offset="0"/>
      <stop stop-color="#49C6E0" offset="1"/>
    </linearGradient>
    <linearGradient id="paint19_linear_43_2209" x1="108.4" x2="108.4" y1="30.91" y2="37.57" gradientUnits="userSpaceOnUse">
      <stop stop-color="#84E9EF" offset="0"/>
      <stop stop-color="#49C6E0" offset="1"/>
    </linearGradient>
    <linearGradient id="paint20_linear_43_2209" x1="46.72" x2="46.72" y1="72.46" y2="79" gradientUnits="userSpaceOnUse">
      <stop stop-color="#49C6E0" offset="0"/>
      <stop stop-color="#49C6E0" offset="1"/>
    </linearGradient>
    <linearGradient id="paint21_linear_43_2209" x1="39.6" x2="39.6" y1="86.77" y2="92.45" gradientUnits="userSpaceOnUse">
      <stop stop-color="#49C6E0" offset="0"/>
      <stop stop-color="#36B9CC" offset="1"/>
    </linearGradient>
    <linearGradient id="paint22_linear_43_2209" x1="72.14" x2="72.14" y1="203.7" y2="209.9" gradientUnits="userSpaceOnUse">
      <stop stop-color="#36B9CC" offset="0"/>
      <stop stop-color="#227BA8" offset="1"/>
    </linearGradient>
    <linearGradient id="paint23_linear_43_2209" x1="84.12" x2="84.12" y1="210" y2="216.6" gradientUnits="userSpaceOnUse">
      <stop stop-color="#36B9CC" offset="0"/>
      <stop stop-color="#227BA8" offset="1"/>
    </linearGradient>
    <linearGradient id="paint24_linear_43_2209" x1="95.99" x2="95.99" y1="214.8" y2="221.4" gradientUnits="userSpaceOnUse">
      <stop stop-color="#36B9CC" offset="0"/>
      <stop stop-color="#227BA8" offset="1"/>
    </linearGradient>
    <linearGradient id="paint25_linear_43_2209" x1="109.1" x2="109.1" y1="218.5" y2="225.1" gradientUnits="userSpaceOnUse">
      <stop stop-color="#36B9CC" offset="0"/>
      <stop stop-color="#227BA8" offset="1"/>
    </linearGradient>
    <linearGradient id="paint26_linear_43_2209" x1="157.4" x2="157.4" y1="93.05" y2="100.7" gradientUnits="userSpaceOnUse">
      <stop stop-color="#36B9CC" offset="0"/>
      <stop stop-color="#136182" offset="1"/>
    </linearGradient>
    <linearGradient id="paint27_linear_43_2209" x1="92.17" x2="92.17" y1="152.1" y2="165.1" gradientUnits="userSpaceOnUse">
      <stop stop-color="#136182" offset="0"/>
      <stop stop-color="#49C6E0" offset="1"/>
    </linearGradient>
    <linearGradient id="paint28_linear_43_2209" x1="199" x2="199" y1="15.92" y2="87.77" gradientUnits="userSpaceOnUse">
      <stop stop-color="#F14938" offset="0"/>
      <stop stop-color="#D3112B" offset="1"/>
    </linearGradient>
    <linearGradient id="paint29_linear_43_2209" x1="192.1" x2="192.1" y1="35.8" y2="87.32" gradientUnits="userSpaceOnUse">
      <stop stop-color="#D3112B" offset="0"/>
      <stop stop-color="#950F36" offset="1"/>
    </linearGradient>
    <linearGradient id="paint30_linear_43_2209" x1="182.1" x2="182.1" y1="53.88" y2="87.21" gradientUnits="userSpaceOnUse">
      <stop stop-color="#950F36" offset="0"/>
      <stop stop-color="#950F36" offset="1"/>
    </linearGradient>
    <linearGradient id="paint31_linear_43_2209" x1="171.9" x2="171.9" y1="72.75" y2="91.02" gradientUnits="userSpaceOnUse">
      <stop stop-color="#950F36" offset="0"/>
      <stop stop-color="#7A0928" offset="1"/>
    </linearGradient>
    <radialGradient id="paint32_radial_43_2209" cx="0" cy="0" r="1" gradientTransform="translate(123 93.05) rotate(74.28) scale(66.35 58.94)" gradientUnits="userSpaceOnUse">
      <stop stop-color="#F14938" offset="0"/>
      <stop stop-color="#D3112B" offset=".5104"/>
      <stop stop-color="#7A0936" offset="1"/>
    </radialGradient>
  </defs>
</svg>