<svg xmlns="http://www.w3.org/2000/svg" width="256" height="256" fill="none" viewBox="0 0 256 256">
<!-- SVG created with Arrow, by QuiverAI (https://quiver.ai) -->
  <path d="m127.5 167c43.35 0 88.01-37.12 88.01-89.9 0-42.58-36.16-77.09-88.01-77.09-49.42 0-88.02 34.21-88.02 77.09 0 49.88 41.74 89.9 88.02 89.9z" fill="url(#paint0_radial_645_1175)"/>
  <path d="m127.2 19.72c-36.57 0-66.42 30.96-66.42 69.1 0 21.12 10.31 40.04 26.23 53.13-8.03 1.17-12.72 8.26-12.2 13.16 0.32 3.1 2.49 7.02 3.93 10.33l16.1 38.65c2.76 7.78 5.94 13.92 12.37 21.23 5.88 6.75 9.23 10.86 9.23 22.67h66.72c0-10.78 0.72-13.12 4.9-21.12 5.59-10.79 7.44-17.15 7.44-31.78v-40.37c0-8.88-7.52-19.06-15.81-17.51-2.75-4.92-5.91-6.42-5.91-6.42 11.13-11.92 21.4-27.71 21.4-41.85 0-13.69-4.08-26.33-10.4-37.86l-12.98 13.06c5.78 7.98 8.05 14.63 8.05 24.8 0 14.25-7.72 28.19-18.79 37.07l-3.77-1.67c-2.6-3.46-5.61-5.09-11.41-5.62l0.27-25.92c0-11.72-9.23-20.16-18.77-20.16-11.24 0-18.13 10.11-18.13 18.08l-0.11 61.94c-5.26-5.47-11.88-8.88-19.28-7.96 11.4-7.83 22.13-11.95 37.34-11.95 29.49 0 49.76-24.41 49.76-44.14 0-27.25-20.68-68.89-49.76-68.89z" fill="url(#paint1_linear_645_1175)"/>
  <path d="m127.6 30.05c-30.81 0-54.93 26.66-54.93 58.67 0 24.54 16.25 47.11 37.35 54.2v-9.19c-16.88-6.61-29.92-23.56-29.92-45.01 0-27.73 21.57-49.35 47.5-49.35 11.84 0 21.57 3.99 29.98 11.34l9.1-7.74c-10.53-8.56-22.53-12.92-39.08-12.92zm47.75 28.76-5.03 5.07c5.26 7.83 7.12 15.19 7.12 24.84 0 14.25-7.07 27.89-18.13 37.29l7.53 2.23c10.84-10.33 17.77-23.5 17.77-39.52 0-11.01-2.91-20.9-9.26-29.91z" fill="url(#paint2_linear_645_1175)"/>
  <path d="m127.4 47.72c-23.5 0.92-38.79 19.43-38.79 41 0 14.36 7.8 27.36 20.72 34.45v-16.98c-6.23-5.48-9.2-12.13-9.2-19.18 0-16.53 11.74-33.17 27.27-33.17v-6.12z" fill="url(#paint3_linear_645_1175)"/>
  <path d="m165 79.95c2.54 8.46 1.8 26.24-14.95 38.16l-4-0.46 0.11-2.13c11.54-4.91 19.31-18.4 16.83-34.24l2.01-1.33z" fill="url(#paint4_linear_645_1175)"/>
  <path d="m184.2 37.01c-2.17-1.72-4.03-0.05-5.09 1.09l-28.42 28.89-7.83-9.81c-1.97-1.89-4.03-1.52-5.74 0.51-1.45 1.77-1.55 3.3 0.62 5.43l11.13 10.74c2.07 2.28 3.83 1.15 5.8-0.97l29.69-29.68c2.38-2.55 2.43-4.39-0.16-6.2z" fill="url(#paint5_linear_645_1175)"/>
  <path d="m110.1 91.08c0-10 8.72-18.14 17.3-17.83 10.53 0.41 18.3 8.9 18.3 19.91l-0.32 28.43c7.52-0.61 11.5 3.12 13.72 7.62 8.88-2.44 16.91 2.15 19.4 9.51 9.04-3.06 17.02 4.5 17.02 15.18v39.81c0 13.4-3.36 23.04-9.44 33.62-3.97 6.9-3.11 10.8-3.11 20.66h-7.12c0-12.8 0.75-15.6 6.79-26.79 5.49-9.74 6.3-16.59 6.3-26.98v-39.04c0-4.76-2.7-6.44-5.19-6.44-3.11 0-5.28 3-5.28 5.98v11.43c0 6.13-9.14 6.13-9.14 0v-21.13c0-3.89-2.6-6.04-4.98-6.04-3.5 0-5.67 2.81-5.67 5.89v16.53c0 5.82-8.88 5.72-8.88 0v-25.27c0-3.64-2.49-6.25-4.72-6.25-4.38 0-6.08 3.85-6.08 7.26v20.17c0 5.82-8.29 5.72-8.29 0v-65.32c0-4.74-3.1-6.11-4.6-6.11-3.5 0-5.57 3.15-5.57 6.11v87.85c0 6.9-7.93 11.03-12.27 3.93l-8.39-19.61c-2.49-5.53-6.71-7.31-11.3-6.14l14.03 41.59c3.3 9.4 5.47 14.25 12.5 21.7 6.08 6.6 9.28 12.42 9.28 26.68h-7.93c0-11.44-2.75-15.34-10.43-24.54-5.74-6.6-7.8-11.12-11.83-23.23l-14.13-40.71c-1.16-3.36-1.05-4.59 2.11-7.67 7.92-7.14 19.94-3.98 27.4 2.87l0.52-63.63z" fill="url(#paint6_linear_645_1175)" stroke="#FEFFFE" stroke-miterlimit="10" stroke-width="2.5"/>
  <path d="m187.1 174.3c-4.39 23.58-22.84 43.63-49.41 43.83-11.54 0.1-23.6-4.4-30.33-11.15 2.34 4.81 4.83 8.46 8.76 12.57 6.62 6.95 8.79 12.66 8.79 27.85h48.75c0-11.38 1.16-16.71 6.75-26.99 5.59-10.33 7.35-15.45 7.35-27.33l-0.66-18.78z" fill="url(#paint7_linear_645_1175)"/>
  <defs>
    <radialGradient id="paint0_radial_645_1175" cx="0" cy="0" r="1" gradientTransform="translate(127.5 77.09) scale(100.6 99.71)" gradientUnits="userSpaceOnUse">
      <stop stop-color="#FF4B3A" offset="0"/>
      <stop stop-color="#FF5745" stop-opacity=".6615" offset=".3385"/>
      <stop stop-color="#FF7765" stop-opacity=".052" offset=".948"/>
      <stop stop-color="#FF7C6A" stop-opacity="0" offset="1"/>
    </radialGradient>
    <linearGradient id="paint1_linear_645_1175" x1="127.6" x2="127.6" y1="19.72" y2="248" gradientUnits="userSpaceOnUse">
      <stop stop-color="#FEFFFE" offset="0"/>
      <stop stop-color="#B4D2DF" offset=".2207"/>
      <stop stop-color="#4F86A2" offset="1"/>
    </linearGradient>
    <linearGradient id="paint2_linear_645_1175" x1="128.7" x2="128.7" y1="30.05" y2="132.7" gradientUnits="userSpaceOnUse">
      <stop stop-color="#2D85A1" offset="0"/>
      <stop stop-color="#002147" offset="1"/>
    </linearGradient>
    <linearGradient id="paint3_linear_645_1175" x1="108" x2="108" y1="47.72" y2="123.2" gradientUnits="userSpaceOnUse">
      <stop stop-color="#FFAFA9" offset="0"/>
      <stop stop-color="#FF786E" stop-opacity=".06" offset="1"/>
    </linearGradient>
    <linearGradient id="paint4_linear_645_1175" x1="155.8" x2="155.8" y1="79.95" y2="118.1" gradientUnits="userSpaceOnUse">
      <stop stop-color="#FFAFA9" offset="0"/>
      <stop stop-color="#FF786E" stop-opacity=".06" offset="1"/>
    </linearGradient>
    <linearGradient id="paint5_linear_645_1175" x1="161" x2="161" y1="36.11" y2="75.09" gradientUnits="userSpaceOnUse">
      <stop stop-color="#F66151" offset="0"/>
      <stop stop-color="#622F57" offset="1"/>
    </linearGradient>
    <linearGradient id="paint6_linear_645_1175" x1="137.3" x2="137.3" y1="73.23" y2="248" gradientUnits="userSpaceOnUse">
      <stop stop-color="#004769" offset="0"/>
      <stop stop-color="#B4D2DF" offset=".4841"/>
      <stop stop-color="#4F86A2" offset="1"/>
    </linearGradient>
    <linearGradient id="paint7_linear_645_1175" x1="147.5" x2="147.5" y1="174.3" y2="247.4" gradientUnits="userSpaceOnUse">
      <stop stop-color="#B4D2DF" offset="0"/>
      <stop stop-color="#4F86A2" offset="1"/>
    </linearGradient>
  </defs>
</svg>