<svg xmlns="http://www.w3.org/2000/svg" width="250" height="250" fill="none" viewBox="0 0 250 250">
<!-- SVG created with Arrow, by QuiverAI (https://quiver.ai) -->
  <path d="m18.26 47.98v193h206.7v-30.81c0-12.87-10.19-23.31-22.74-23.31-6.95 0-12.35 2.78-16.1 6.84 0-13.48-10.2-25.15-24.09-25.15-8.86 0-14.95 3.68-19.17 8.01-3.41-11.67-13.71-22.59-26.26-22.59-8.86 0-15.35 3.99-19.92 9.42v-115.4c0-21.52-16.69-39.32-37.85-39.32h-1.03c-21.75 0-39.58 17.8-39.58 39.32z" fill="url(#paint0_linear_118_2503)"/>
  <path d="m26.66 47.41v33.3c0 18.5 14.58 34.14 33.08 34.14 18.08 0 31.94-14.58 31.94-33.08v-34.36c0-18.08-14.58-33.72-33.08-33.72s-31.94 14.58-31.94 33.72z" fill="url(#paint1_linear_118_2503)" stroke="url(#paint2_linear_118_2503)" stroke-miterlimit="10" stroke-width="4.301"/>
  <path d="m29.18 49.79v31.22c0 15.9 12.83 30.48 29.42 30.48 16.2 0 28.31-13.86 28.31-29.43v-32.27c0-15.28-12.14-30.85-28.34-30.85-16.56 0-29.39 13.86-29.39 30.85z" fill="url(#paint3_linear_118_2503)" stroke="url(#paint4_linear_118_2503)" stroke-miterlimit="10" stroke-width="2.15"/>
  <path d="m58.6 81.32c14.02 0 25.37-12.09 25.37-26.67s-11.35-25.78-25.37-25.78-24.39 11.2-24.39 25.78 10.37 26.67 24.39 26.67z" fill="url(#paint5_linear_118_2503)"/>
  <path d="m58.6 76.12c11.21 0 20.28-9.63 20.28-21.5s-9.07-20.63-20.28-20.63-20.28 8.76-20.28 20.63 9.07 21.5 20.28 21.5z" fill="url(#paint6_radial_118_2503)"/>
  <path d="m58.6 67.61c7.62 0 13.81-6.54 13.81-14.16 0-7.63-6.19-13.54-13.81-13.54s-13.41 5.91-13.41 13.54c0 7.62 5.79 14.16 13.41 14.16z" fill="url(#paint7_radial_118_2503)"/>
  <path d="m58.16 54.65 129.7-29.93 0.22 64.99-129.9-32.91v-2.15z" fill="url(#paint8_linear_118_2503)"/>
  <path d="m191.1 40.93c-8 12.38-12.8 19.93-12.8 29.08 0 13.8 10.9 25.56 25.5 25.56 13.8 0 27.21-10.9 27.21-26.32 0-10.9-8-20.94-14.05-30.54s-12.5-22.05-12.5-22.05c-3.04 7.55-8.25 16.72-13.36 24.27z" fill="url(#paint9_linear_118_2503)"/>
  <path d="m193.6 50.97c-5.81 8.74-8.19 13.19-8.19 19.04 0 10.04 8.74 18.4 18.34 18.4 10.47 0 19.61-9.6 19.61-19.2 0-6.92-6.05-14.47-11.27-22.47-3.81-5.76-8.06-15.73-8.06-15.73-1.29 4.05-5.77 13.2-10.43 19.96z" fill="url(#paint10_radial_118_2503)"/>
  <path d="m214.5 59.43c1.19 4.53 1.51 10.53-4.43 15.75-2.72 2.59-0.34 7.43 4.32 4 6.39-4.65 7.27-13.01 0.11-19.75z" fill="#FEFFFE"/>
  <path d="m61.81 54.65 51.3 0.97c8.11 0 8.11-11.41 14.56-11.41 7.55 0 9.24 27.1 18.39 27.1 8.46 0 8.87-17.86 16.83-17.86l13.38-0.38" stroke="url(#paint11_linear_118_2503)" stroke-linecap="round" stroke-miterlimit="10" stroke-width="3.716"/>
  <path d="m26.66 103.2v137.8h62.95v-137.4c-8.4 10.04-17.26 16.09-31.52 16.09-12.45 0-23.81-6.96-31.43-16.5z" fill="url(#paint12_linear_118_2503)" stroke="url(#paint13_linear_118_2503)" stroke-miterlimit="10" stroke-width="1.29"/>
  <path d="m42.71 124.8v62.13c0 25.05 13.41 48.43 36.79 54.12h9.6l-5.61-130.8c-8.69 9.14-20.04 17.14-40.78 14.5z" fill="url(#paint14_linear_118_2503)"/>
  <path d="m96.72 182.3v58.74h40.79v-58.74c0-12.08-9.6-20.08-20.07-20.08-11.33 0-20.72 9.14-20.72 20.08z" fill="url(#paint15_linear_118_2503)" stroke="url(#paint16_linear_118_2503)" stroke-miterlimit="10" stroke-width="4.301"/>
  <path d="m143.1 193.2v47.84h37.7v-47.84c0-10.47-8.4-18.9-18.41-18.9-10.47 0-19.29 8.75-19.29 18.9z" fill="url(#paint17_linear_118_2503)" stroke="url(#paint18_linear_118_2503)" stroke-miterlimit="10" stroke-width="5.376"/>
  <path d="m185.2 209.8v31.19h33.71v-31.19c0-9.14-7.55-15.59-15.55-15.59-9.6 0-18.16 6.45-18.16 15.59z" fill="url(#paint19_linear_118_2503)" stroke="url(#paint20_linear_118_2503)" stroke-miterlimit="10" stroke-width="5.376"/>
  <path d="m119 167.7c-10.04 0-10.45 10.47-10.45 18.02v55.24h23.79v-58.34c0-7.55-8-14.92-13.34-14.92z" fill="url(#paint21_linear_118_2503)"/>
  <path d="m159.9 180.4c-7.55 0-5.03 9.14-5.03 16.26v43.03h19.79v-46.17c0-7.13-8-13.12-14.76-13.12z" fill="url(#paint22_linear_118_2503)"/>
  <path d="m200.7 198.8c-6.05 2.94-4.36 22.04-1.84 30.47 1.66 6.05 3.78 9.38 6.3 11.76h10.47v-25.56c0-9.6-6.95-20.07-14.93-16.67z" fill="url(#paint23_linear_118_2503)"/>
  <path d="m41.84 173c6.49-5.63 13.55-4.82 16.76-4.82 6.05 0 12.1 2.09 15.03 4.18 3.36 2.35 2.07 3.16-0.41 2.35-4.19-1.44-8.95-1.94-15-1.44-5.63 0.46-11.16 1.65-14.1 2.46-2.93 0.81-3.74-0.86-2.28-2.73z" fill="url(#paint24_linear_118_2503)" stroke="url(#paint25_linear_118_2503)" stroke-miterlimit="10" stroke-width="1.075"/>
  <path d="m42.68 182.6c4.76 2.52 9.94 3.75 15.57 3.4 6.45-0.41 9.39-1.25 12.74-2.92 2.94-1.44 2.53-2.7-0.83-1.86-3.77 1-8.92 1-13.14 1-4.35 0-10.4-1-13.34-1.84-2.52-0.81-3.33 0.42-1 2.22z" fill="url(#paint26_linear_118_2503)" stroke="url(#paint27_linear_118_2503)" stroke-miterlimit="10" stroke-width="1.075"/>
  <defs>
    <linearGradient id="paint0_linear_118_2503" x1="12.98" x2="230.3" y1="124.8" y2="124.8" gradientUnits="userSpaceOnUse">
      <stop stop-color="#74134A" offset="0"/>
      <stop stop-color="#22092C" offset="1"/>
    </linearGradient>
    <linearGradient id="paint1_linear_118_2503" x1="59.17" x2="59.17" y1="11.6" y2="116.9" gradientUnits="userSpaceOnUse">
      <stop stop-color="#983242" offset="0"/>
      <stop stop-color="#FEFFFE" offset="1"/>
    </linearGradient>
    <linearGradient id="paint2_linear_118_2503" x1="24.56" x2="93.78" y1="64.27" y2="64.27" gradientUnits="userSpaceOnUse">
      <stop stop-color="#849BA8" offset="0"/>
      <stop stop-color="#FEFFFE" offset="1"/>
    </linearGradient>
    <linearGradient id="paint3_linear_118_2503" x1="58.05" x2="58.05" y1="17.86" y2="112.6" gradientUnits="userSpaceOnUse">
      <stop stop-color="#B8C6CC" offset="0"/>
      <stop stop-color="#E8F1F4" offset=".3307"/>
      <stop stop-color="#FEFFFE" offset=".5674"/>
      <stop stop-color="#99B3BE" offset=".963"/>
    </linearGradient>
    <linearGradient id="paint4_linear_118_2503" x1="28.08" x2="88" y1="65.21" y2="65.21" gradientUnits="userSpaceOnUse">
      <stop stop-color="#849BA8" offset="0"/>
      <stop stop-color="#FEFFFE" offset="1"/>
    </linearGradient>
    <linearGradient id="paint5_linear_118_2503" x1="58.6" x2="58.6" y1="26.75" y2="82.94" gradientUnits="userSpaceOnUse">
      <stop stop-color="#74134A" offset="0"/>
      <stop stop-color="#22092C" offset="1"/>
    </linearGradient>
    <radialGradient id="paint6_radial_118_2503" cx="0" cy="0" r="1" gradientTransform="translate(58.6 55.06) scale(20.06 21.07)" gradientUnits="userSpaceOnUse">
      <stop stop-color="#74134A" offset="0"/>
      <stop stop-color="#22092C" offset="1"/>
    </radialGradient>
    <radialGradient id="paint7_radial_118_2503" cx="0" cy="0" r="1" gradientTransform="translate(58.6 53.76) scale(13.42 13.98)" gradientUnits="userSpaceOnUse">
      <stop stop-color="#FCE7D6" offset="0"/>
      <stop stop-color="#F05946" offset=".4948"/>
      <stop stop-color="#903" offset="1"/>
    </radialGradient>
    <linearGradient id="paint8_linear_118_2503" x1="60.31" x2="188.1" y1="57.22" y2="57.22" gradientUnits="userSpaceOnUse">
      <stop stop-color="#F05946" stop-opacity=".6" offset="0"/>
      <stop stop-color="#F05946" stop-opacity=".06" offset="1"/>
    </linearGradient>
    <linearGradient id="paint9_linear_118_2503" x1="204.7" x2="204.7" y1="16.66" y2="95.57" gradientUnits="userSpaceOnUse">
      <stop stop-color="#74134A" offset="0"/>
      <stop stop-color="#410A3A" offset="1"/>
    </linearGradient>
    <radialGradient id="paint10_radial_118_2503" cx="0" cy="0" r="1" gradientTransform="translate(201.7 48.81) scale(30.82 32.27)" gradientUnits="userSpaceOnUse">
      <stop stop-color="#F9B659" offset="0"/>
      <stop stop-color="#F05946" offset=".3315"/>
      <stop stop-color="#903" offset=".7791"/>
      <stop stop-color="#6E0033" offset="1"/>
    </radialGradient>
    <linearGradient id="paint11_linear_118_2503" x1="61.81" x2="176.3" y1="54.91" y2="54.91" gradientUnits="userSpaceOnUse">
      <stop stop-color="#D93939" offset="0"/>
      <stop stop-color="#F05946" stop-opacity=".14" offset="1"/>
    </linearGradient>
    <linearGradient id="paint12_linear_118_2503" x1="58.14" x2="58.14" y1="102.1" y2="242.1" gradientUnits="userSpaceOnUse">
      <stop stop-color="#D44A36" offset="0"/>
      <stop stop-color="#65144A" offset="1"/>
    </linearGradient>
    <linearGradient id="paint13_linear_118_2503" x1="25.51" x2="90.76" y1="172.1" y2="172.1" gradientUnits="userSpaceOnUse">
      <stop stop-color="#74134A" offset="0"/>
      <stop stop-color="#22092C" offset="1"/>
    </linearGradient>
    <linearGradient id="paint14_linear_118_2503" x1="64.98" x2="64.98" y1="121.4" y2="242.1" gradientUnits="userSpaceOnUse">
      <stop stop-color="#F08039" offset="0"/>
      <stop stop-color="#6D163C" offset="1"/>
    </linearGradient>
    <linearGradient id="paint15_linear_118_2503" x1="117.1" x2="117.1" y1="160.1" y2="242.1" gradientUnits="userSpaceOnUse">
      <stop stop-color="#D44A36" offset="0"/>
      <stop stop-color="#65144A" offset="1"/>
    </linearGradient>
    <linearGradient id="paint16_linear_118_2503" x1="94.57" x2="139.7" y1="201.6" y2="201.6" gradientUnits="userSpaceOnUse">
      <stop stop-color="#74134A" offset="0"/>
      <stop stop-color="#22092C" offset="1"/>
    </linearGradient>
    <linearGradient id="paint17_linear_118_2503" x1="162" x2="162" y1="171.6" y2="242.1" gradientUnits="userSpaceOnUse">
      <stop stop-color="#F08039" offset="0"/>
      <stop stop-color="#972249" offset="1"/>
    </linearGradient>
    <linearGradient id="paint18_linear_118_2503" x1="139.9" x2="184" y1="207.6" y2="207.6" gradientUnits="userSpaceOnUse">
      <stop stop-color="#74134A" offset="0"/>
      <stop stop-color="#22092C" offset="1"/>
    </linearGradient>
    <linearGradient id="paint19_linear_118_2503" x1="202.1" x2="202.1" y1="191.6" y2="242.1" gradientUnits="userSpaceOnUse">
      <stop stop-color="#F08039" offset="0"/>
      <stop stop-color="#972249" offset="1"/>
    </linearGradient>
    <linearGradient id="paint20_linear_118_2503" x1="182" x2="222.1" y1="217.6" y2="217.6" gradientUnits="userSpaceOnUse">
      <stop stop-color="#74134A" offset="0"/>
      <stop stop-color="#22092C" offset="1"/>
    </linearGradient>
    <linearGradient id="paint21_linear_118_2503" x1="120.5" x2="120.5" y1="167.7" y2="241" gradientUnits="userSpaceOnUse">
      <stop stop-color="#E84D31" offset="0"/>
      <stop stop-color="#972249" offset="1"/>
    </linearGradient>
    <linearGradient id="paint22_linear_118_2503" x1="164.8" x2="164.8" y1="180.4" y2="239.7" gradientUnits="userSpaceOnUse">
      <stop stop-color="#E84D31" offset="0"/>
      <stop stop-color="#972249" offset="1"/>
    </linearGradient>
    <linearGradient id="paint23_linear_118_2503" x1="204.9" x2="204.9" y1="198" y2="241" gradientUnits="userSpaceOnUse">
      <stop stop-color="#E84D31" offset="0"/>
      <stop stop-color="#972249" offset="1"/>
    </linearGradient>
    <linearGradient id="paint24_linear_118_2503" x1="58.28" x2="58.28" y1="167.6" y2="176.3" gradientUnits="userSpaceOnUse">
      <stop stop-color="#74134A" offset="0"/>
      <stop stop-color="#410A3A" offset="1"/>
    </linearGradient>
    <linearGradient id="paint25_linear_118_2503" x1="40.66" x2="75.81" y1="172" y2="172" gradientUnits="userSpaceOnUse">
      <stop stop-color="#74134A" offset="0"/>
      <stop stop-color="#22092C" offset="1"/>
    </linearGradient>
    <linearGradient id="paint26_linear_118_2503" x1="57.52" x2="57.52" y1="180.2" y2="186.1" gradientUnits="userSpaceOnUse">
      <stop stop-color="#74134A" offset="0"/>
      <stop stop-color="#410A3A" offset="1"/>
    </linearGradient>
    <linearGradient id="paint27_linear_118_2503" x1="41.47" x2="73.56" y1="183.2" y2="183.2" gradientUnits="userSpaceOnUse">
      <stop stop-color="#74134A" offset="0"/>
      <stop stop-color="#22092C" offset="1"/>
    </linearGradient>
  </defs>
</svg>