<svg xmlns="http://www.w3.org/2000/svg" width="250" height="250" fill="none" viewBox="0 0 250 250">
<!-- SVG created with Arrow, by QuiverAI (https://quiver.ai) -->
  <path d="m126 203.9c-8.04 2.07-14.84 2.84-22.95 2.84-48.66 0-90.38-37.74-90.38-89.83 0-46.02 36.62-82.47 82.21-82.47 7.21 0 11.87 0.52 18.42 1.51l-0.1 94.79 16.58 6.04c-9.54 10.61-13.95 19.66-13.95 36.97 0 11.25 3.92 21.75 9.28 29.09l0.89 1.06z" fill="url(#paint0_linear_1420_25841)"/>
  <path d="m102.6 186.1c-43.47 0-80.28-37.03-80.28-79.98 0-36.32 29.54-65.12 65.34-65.12 8.82 0 13.64 0.29 25.68 2.69l-0.1 84.79 16.58 8.02c-6.99 7.87-13.91 18.54-13.91 31.43 0 6.15 0.86 10.89 2.47 15.92-4.72 1.44-9.91 2.25-15.78 2.25z" fill="url(#paint1_linear_1420_25841)"/>
  <path d="m103.1 168.4c-26.3-1.13-47.47-21.34-47.47-58.15 0-26.2 20.27-46.55 45.62-46.55 4.45 0 7.25 0.22 11.96 1.12l-0.07 63.91 16.69 8.01c-7.4 8.36-12.69 17.03-13.3 29.06-4.04 1.98-7.7 2.6-13.43 2.6z" fill="url(#paint2_linear_1420_25841)"/>
  <path d="m102.6 81.64c-22.9 0-40.54 18.55-40.54 39.63 0 5.35 0.63 10.58 2.36 15.25-6.33-8.41-8.83-16.24-8.83-26.39 0-24.98 19.28-46.42 45.62-46.42 4.19 0 7.68 0.48 11.96 1.37v18.63c-3.37-1.28-6.34-2.07-10.57-2.07z" fill="url(#paint3_linear_1420_25841)"/>
  <path d="m34.59 99.21c3.84-23.12 17.89-41.24 43.07-48.5" stroke="url(#paint4_linear_1420_25841)" stroke-linecap="round" stroke-width="8.208"/>
  <path d="m130.8 10.01c55.99 0 106.2 45.74 106.5 99.1 0.03 5.31-4.38 7.2-7.33 7.12-4.04-0.12-7.26-3.51-7.18-7.22 0.62-44.97-39.9-87.92-92.35-87.57-5.53 0.04-7.13-3.46-7.13-6.43 0-4.25 3.1-5 7.47-5z" fill="url(#paint5_linear_1420_25841)"/>
  <path d="m130.8 36.13c41.14 0 76.69 32.63 76.95 72.81 0.03 5.84-4.59 7.72-7.34 7.47-4.46-0.4-6.99-3.57-6.91-7.67 0.27-28.08-24.69-58.93-62.99-59.24-5.29-0.04-6.82-3.71-6.82-6.19 0-4.54 2.96-7.18 7.11-7.18z" fill="url(#paint6_linear_1420_25841)"/>
  <path d="m130.5 63.42c27.39 0 48.25 23 48.39 45.51 0.03 5.95-4.1 7.6-7.16 7.38-4.04-0.29-6.56-2.92-6.56-7.38 0-15.92-14.97-31.57-34.93-31.57-5.53 0-6.95-3.39-6.95-6.95 0-4.25 2.41-6.99 7.21-6.99z" fill="url(#paint7_linear_1420_25841)"/>
  <path d="m131.7 91.11c11.36 0 18.21 9.56 18.21 18.95 0 10.42-8.93 18.23-18.21 18.23-11.36 0-18.22-8.84-18.22-18.23 0-10.42 8.12-18.95 18.22-18.95z" fill="url(#paint8_linear_1420_25841)"/>
  <path d="m234.8 225-20.53-19.05c-1.57-1.57-3.39-1.4-5.12-0.22l-5.12-5.35c7.32-9.27 9.6-19.35 8.49-31.95-3.11-21.34-20.3-40.12-43.69-40.12-26.31 0-45.48 20.36-45.48 45.34 0 24.23 19.75 44.18 45.1 44.18 10.5 0 19.55-3.6 26.91-9.22l6.39 6.04c-0.99 2.45-0.26 4.99 1.47 6.62l18.93 18.29c4.8 4.45 10.7 2.17 13.23-1.53s2.18-9.33-0.58-13.03zm-65.84-18.36c-18.93 0-34.16-15.94-34.16-33.25 0-18.46 15.23-33.94 33.9-33.94 17.96 0 32.76 16.2 32.76 33.51 0 16.79-14.54 33.68-32.5 33.68z" fill="url(#paint9_linear_1420_25841)"/>
  <path d="m168.9 150.9c11.45-0.26 21.49 9.79 21.49 21.5" stroke="url(#paint10_linear_1420_25841)" stroke-linecap="round" stroke-width="7.192"/>
  <defs>
    <linearGradient id="paint0_linear_1420_25841" x1="36.37" x2="108.7" y1="53.55" y2="197.1" gradientUnits="userSpaceOnUse">
      <stop stop-color="#F37943" offset="0"/>
      <stop stop-color="#D42A31" offset=".4948"/>
      <stop stop-color="#8F0C35" offset="1"/>
    </linearGradient>
    <linearGradient id="paint1_linear_1420_25841" x1="58.08" x2="99.22" y1="57.86" y2="182.1" gradientUnits="userSpaceOnUse">
      <stop stop-color="#E1473D" offset="0"/>
      <stop stop-color="#D0262B" offset=".5208"/>
      <stop stop-color="#D13036" offset="1"/>
    </linearGradient>
    <linearGradient id="paint2_linear_1420_25841" x1="81.68" x2="98.38" y1="70" y2="166.5" gradientUnits="userSpaceOnUse">
      <stop stop-color="#890B35" offset="0"/>
      <stop stop-color="#B1192D" offset=".526"/>
      <stop stop-color="#F16843" offset="1"/>
    </linearGradient>
    <linearGradient id="paint3_linear_1420_25841" x1="81.68" x2="89.03" y1="66.92" y2="132.2" gradientUnits="userSpaceOnUse">
      <stop stop-color="#991236" offset="0"/>
      <stop stop-color="#8A1035" offset="1"/>
    </linearGradient>
    <linearGradient id="paint4_linear_1420_25841" x1="34.59" x2="77.98" y1="75.71" y2="75.71" gradientUnits="userSpaceOnUse">
      <stop stop-color="#F99889" offset="0"/>
      <stop stop-color="#FDA592" offset="1"/>
    </linearGradient>
    <linearGradient id="paint5_linear_1420_25841" x1="135.7" x2="211.6" y1="10" y2="89.35" gradientUnits="userSpaceOnUse">
      <stop stop-color="#27AAC8" offset="0"/>
      <stop stop-color="#227EA5" offset="1"/>
    </linearGradient>
    <linearGradient id="paint6_linear_1420_25841" x1="129.9" x2="187.9" y1="36.13" y2="96.7" gradientUnits="userSpaceOnUse">
      <stop stop-color="#9A7674" offset="0"/>
      <stop stop-color="#936978" offset="1"/>
    </linearGradient>
    <linearGradient id="paint7_linear_1420_25841" x1="128.7" x2="166.6" y1="63.42" y2="109.1" gradientUnits="userSpaceOnUse">
      <stop stop-color="#E1473D" offset="0"/>
      <stop stop-color="#D04439" offset="1"/>
    </linearGradient>
    <linearGradient id="paint8_linear_1420_25841" x1="120" x2="139.1" y1="95.24" y2="125.6" gradientUnits="userSpaceOnUse">
      <stop stop-color="#E74034" offset="0"/>
      <stop stop-color="#9F082B" offset="1"/>
    </linearGradient>
    <linearGradient id="paint9_linear_1420_25841" x1="142.1" x2="208.2" y1="132.9" y2="224.9" gradientUnits="userSpaceOnUse">
      <stop stop-color="#29A6CD" offset="0"/>
      <stop stop-color="#0E325D" offset="1"/>
    </linearGradient>
    <linearGradient id="paint10_linear_1420_25841" x1="168.9" x2="189.4" y1="150.9" y2="173.8" gradientUnits="userSpaceOnUse">
      <stop stop-color="#29A6CD" offset="0"/>
      <stop stop-color="#186089" offset="1"/>
    </linearGradient>
  </defs>
</svg>